<mxfile host="app.diagrams.net" modified="2024-02-27T14:15:34.794Z" agent="Mozilla/5.0 (Windows NT 10.0; Win64; x64) AppleWebKit/537.36 (KHTML, like Gecko) Chrome/122.0.0.0 Safari/537.36" etag="y0KDtcdjJAgNcmkOFUsS" version="22.1.22" type="github">
  <diagram name="Page-1" id="FWCxX5ANqgB5dqkwmjfZ">
    <mxGraphModel dx="1434" dy="900" grid="1" gridSize="10" guides="1" tooltips="1" connect="1" arrows="1" fold="1" page="1" pageScale="1" pageWidth="827" pageHeight="1169" math="0" shadow="0">
      <root>
        <mxCell id="0" />
        <mxCell id="1" parent="0" />
        <mxCell id="up14dLh9l7zOxtXITlZi-1" value="" style="image;aspect=fixed;html=1;points=[];align=center;fontSize=12;image=img/lib/azure2/general/Folder_Blank.svg;" vertex="1" parent="1">
          <mxGeometry x="122.03" y="50" width="36.97" height="30" as="geometry" />
        </mxCell>
        <mxCell id="up14dLh9l7zOxtXITlZi-4" value="" style="image;aspect=fixed;html=1;points=[];align=center;fontSize=12;image=img/lib/azure2/general/Folder_Blank.svg;" vertex="1" parent="1">
          <mxGeometry x="202" y="129" width="36.97" height="30" as="geometry" />
        </mxCell>
        <mxCell id="up14dLh9l7zOxtXITlZi-5" value="" style="image;aspect=fixed;html=1;points=[];align=center;fontSize=12;image=img/lib/azure2/general/Folder_Blank.svg;" vertex="1" parent="1">
          <mxGeometry x="202" y="361" width="36.97" height="30" as="geometry" />
        </mxCell>
        <mxCell id="up14dLh9l7zOxtXITlZi-7" value="&lt;font style=&quot;font-size: 17px;&quot;&gt;MHHS-AWS-Infra&lt;/font&gt;" style="text;html=1;strokeColor=none;fillColor=none;align=center;verticalAlign=middle;whiteSpace=wrap;rounded=0;fontStyle=1" vertex="1" parent="1">
          <mxGeometry x="159" y="50" width="160" height="30" as="geometry" />
        </mxCell>
        <mxCell id="up14dLh9l7zOxtXITlZi-8" value="&lt;font style=&quot;font-size: 17px;&quot;&gt;Team - K2&lt;/font&gt;" style="text;html=1;strokeColor=none;fillColor=none;align=center;verticalAlign=middle;whiteSpace=wrap;rounded=0;fontStyle=1" vertex="1" parent="1">
          <mxGeometry x="238.97" y="131" width="91.03" height="30" as="geometry" />
        </mxCell>
        <mxCell id="up14dLh9l7zOxtXITlZi-12" value="" style="image;aspect=fixed;html=1;points=[];align=center;fontSize=12;image=img/lib/azure2/general/Folder_Blank.svg;" vertex="1" parent="1">
          <mxGeometry x="239.97" y="180" width="24.65" height="20" as="geometry" />
        </mxCell>
        <mxCell id="up14dLh9l7zOxtXITlZi-19" value="&lt;font style=&quot;font-size: 12px;&quot;&gt;SG-SecurityGroups&lt;/font&gt;" style="text;html=1;strokeColor=none;fillColor=none;align=center;verticalAlign=middle;whiteSpace=wrap;rounded=0;fontStyle=1" vertex="1" parent="1">
          <mxGeometry x="263.62" y="175" width="126.38" height="25" as="geometry" />
        </mxCell>
        <mxCell id="up14dLh9l7zOxtXITlZi-21" value="CloudFormation.yml" style="text;html=1;strokeColor=none;fillColor=none;align=center;verticalAlign=middle;whiteSpace=wrap;rounded=0;" vertex="1" parent="1">
          <mxGeometry x="276" y="200" width="120" height="30" as="geometry" />
        </mxCell>
        <mxCell id="up14dLh9l7zOxtXITlZi-27" value="" style="endArrow=none;html=1;rounded=0;exitX=0.567;exitY=1.1;exitDx=0;exitDy=0;exitPerimeter=0;" edge="1" parent="1" source="up14dLh9l7zOxtXITlZi-1">
          <mxGeometry width="50" height="50" relative="1" as="geometry">
            <mxPoint x="390" y="370" as="sourcePoint" />
            <mxPoint x="141" y="500" as="targetPoint" />
          </mxGeometry>
        </mxCell>
        <mxCell id="up14dLh9l7zOxtXITlZi-28" value="" style="endArrow=none;html=1;rounded=0;" edge="1" parent="1">
          <mxGeometry width="50" height="50" relative="1" as="geometry">
            <mxPoint x="142" y="145" as="sourcePoint" />
            <mxPoint x="202" y="145" as="targetPoint" />
          </mxGeometry>
        </mxCell>
        <mxCell id="up14dLh9l7zOxtXITlZi-29" value="" style="endArrow=none;html=1;rounded=0;" edge="1" parent="1">
          <mxGeometry width="50" height="50" relative="1" as="geometry">
            <mxPoint x="142" y="378" as="sourcePoint" />
            <mxPoint x="202" y="378" as="targetPoint" />
          </mxGeometry>
        </mxCell>
        <mxCell id="up14dLh9l7zOxtXITlZi-30" value="" style="endArrow=none;html=1;rounded=0;" edge="1" parent="1">
          <mxGeometry width="50" height="50" relative="1" as="geometry">
            <mxPoint x="220" y="160" as="sourcePoint" />
            <mxPoint x="220" y="320" as="targetPoint" />
          </mxGeometry>
        </mxCell>
        <mxCell id="up14dLh9l7zOxtXITlZi-31" value="" style="endArrow=none;html=1;rounded=0;" edge="1" parent="1">
          <mxGeometry width="50" height="50" relative="1" as="geometry">
            <mxPoint x="220" y="190" as="sourcePoint" />
            <mxPoint x="240" y="190" as="targetPoint" />
          </mxGeometry>
        </mxCell>
        <mxCell id="up14dLh9l7zOxtXITlZi-32" value="" style="endArrow=none;html=1;rounded=0;entryX=0.529;entryY=1.05;entryDx=0;entryDy=0;entryPerimeter=0;" edge="1" parent="1" target="up14dLh9l7zOxtXITlZi-12">
          <mxGeometry width="50" height="50" relative="1" as="geometry">
            <mxPoint x="253" y="240" as="sourcePoint" />
            <mxPoint x="440" y="320" as="targetPoint" />
          </mxGeometry>
        </mxCell>
        <mxCell id="up14dLh9l7zOxtXITlZi-34" value="" style="endArrow=none;html=1;rounded=0;" edge="1" parent="1">
          <mxGeometry width="50" height="50" relative="1" as="geometry">
            <mxPoint x="253" y="215" as="sourcePoint" />
            <mxPoint x="283" y="215" as="targetPoint" />
          </mxGeometry>
        </mxCell>
        <mxCell id="up14dLh9l7zOxtXITlZi-36" value="" style="endArrow=none;html=1;rounded=0;" edge="1" parent="1">
          <mxGeometry width="50" height="50" relative="1" as="geometry">
            <mxPoint x="254" y="235" as="sourcePoint" />
            <mxPoint x="284" y="235" as="targetPoint" />
          </mxGeometry>
        </mxCell>
        <mxCell id="up14dLh9l7zOxtXITlZi-37" value="" style="image;aspect=fixed;html=1;points=[];align=center;fontSize=12;image=img/lib/azure2/general/Folder_Blank.svg;" vertex="1" parent="1">
          <mxGeometry x="240.97" y="255" width="24.65" height="20" as="geometry" />
        </mxCell>
        <mxCell id="up14dLh9l7zOxtXITlZi-38" value="&lt;font style=&quot;font-size: 12px;&quot;&gt;IAM - Role/Policies&lt;/font&gt;" style="text;html=1;strokeColor=none;fillColor=none;align=center;verticalAlign=middle;whiteSpace=wrap;rounded=0;fontStyle=1" vertex="1" parent="1">
          <mxGeometry x="264.62" y="250" width="126.38" height="25" as="geometry" />
        </mxCell>
        <mxCell id="up14dLh9l7zOxtXITlZi-39" value="CloudFormation.yml" style="text;html=1;strokeColor=none;fillColor=none;align=center;verticalAlign=middle;whiteSpace=wrap;rounded=0;" vertex="1" parent="1">
          <mxGeometry x="277" y="275" width="120" height="30" as="geometry" />
        </mxCell>
        <mxCell id="up14dLh9l7zOxtXITlZi-40" value="" style="endArrow=none;html=1;rounded=0;" edge="1" parent="1">
          <mxGeometry width="50" height="50" relative="1" as="geometry">
            <mxPoint x="221" y="265" as="sourcePoint" />
            <mxPoint x="241" y="265" as="targetPoint" />
          </mxGeometry>
        </mxCell>
        <mxCell id="up14dLh9l7zOxtXITlZi-41" value="" style="endArrow=none;html=1;rounded=0;entryX=0.529;entryY=1.05;entryDx=0;entryDy=0;entryPerimeter=0;" edge="1" parent="1" target="up14dLh9l7zOxtXITlZi-37">
          <mxGeometry width="50" height="50" relative="1" as="geometry">
            <mxPoint x="254" y="315" as="sourcePoint" />
            <mxPoint x="441" y="395" as="targetPoint" />
          </mxGeometry>
        </mxCell>
        <mxCell id="up14dLh9l7zOxtXITlZi-42" value="" style="endArrow=none;html=1;rounded=0;" edge="1" parent="1">
          <mxGeometry width="50" height="50" relative="1" as="geometry">
            <mxPoint x="254" y="290" as="sourcePoint" />
            <mxPoint x="284" y="290" as="targetPoint" />
          </mxGeometry>
        </mxCell>
        <mxCell id="up14dLh9l7zOxtXITlZi-43" value="" style="endArrow=none;html=1;rounded=0;" edge="1" parent="1">
          <mxGeometry width="50" height="50" relative="1" as="geometry">
            <mxPoint x="255" y="310" as="sourcePoint" />
            <mxPoint x="285" y="310" as="targetPoint" />
          </mxGeometry>
        </mxCell>
      </root>
    </mxGraphModel>
  </diagram>
</mxfile>
